<?xml version="1.0" encoding="UTF-8"?>
<svg xmlns="http://www.w3.org/2000/svg" xml:space="preserve" width="2825.81mm" height="538.102mm" version="1.1" style="shape-rendering:geometricPrecision; text-rendering:geometricPrecision; image-rendering:optimizeQuality; fill-rule:evenodd; clip-rule:evenodd"
viewBox="0 0 79153.28 15072.7">
 <g >
  <path fill="#00B0F0" d="M33940.07 7021.38c285.84,69.63 565.65,167.56 825.61,304.15 303.84,159.65 581.6,363.98 806.63,624.53 205.52,237.97 365.51,506.22 468.45,803.61 100.44,290.16 149.8,591.31 149.8,898.45 0,424.73 -53.49,859.78 -206.7,1258.15 -129.18,335.9 -307.15,649.89 -547.22,919.23 -223.87,251.16 -484.34,460.32 -779.42,621.77 -284.77,155.82 -585.23,279.52 -897.79,367.25 -302.27,84.84 -610.91,145.24 -923.18,178.12 -274.46,28.9 -551.73,48.13 -827.81,48.13l-4213.7 0 0 -10247.27 -1105.24 0 0 -1006.43 5239.99 0c915.62,0 1965.63,135.94 2720.54,698.82 702.17,523.56 956.33,1302.4 956.33,2157.01 0,266.31 -48.07,527.56 -133.79,779.33 -89.81,263.78 -222.2,507.17 -392.93,727.48 -176.41,227.63 -386.91,423.52 -622.14,589.24 -161.87,114.05 -335.06,206.62 -517.44,278.42zm4417.72 -4223.87l-1105.24 0 0 -1006.43 1813.7 0c330.99,0 650.96,78.7 910.18,292.56 298.65,246.39 366.73,666.18 366.73,1031.69l0 5826.28c0,770.56 110.86,1717.6 636.8,2323.98 483.8,557.8 1194.13,725.39 1907.31,725.39 734.56,0 1407.77,-201.48 1919,-745.33 567.03,-603.22 704.09,-1508.34 704.09,-2304.04l0 -7150.53 1543.25 0 0 6961.04c0,514.33 -61.19,1026.74 -168.89,1529.34 -113.67,530.46 -326.05,1020.84 -638.19,1464.4 -335.45,476.69 -790.87,834.29 -1305.23,1101.55 -651.72,338.63 -1439.25,434.19 -2164.55,434.19 -758.18,0 -1592.94,-92.36 -2280.58,-432.96 -532.32,-263.67 -1009.36,-622.05 -1354.78,-1110.4 -315.45,-445.98 -527.1,-939.04 -631.05,-1475.27 -96.45,-497.49 -152.56,-1003.78 -152.56,-1510.84l0 -5954.61zm13874.7 9035.6l3525.13 0 0 -1626.32 1543.25 0 0 1987.42c0,559.05 -312.38,850.56 -866.37,850.56l-6187.35 0 0 -10247.27 -1105.24 0 0 -1006.43 1813.71 0c330.99,0 650.96,78.7 910.18,292.56 298.65,246.39 366.7,666.19 366.7,1031.69l0 8717.78zm6761.92 -9035.6l-1105.24 0 0 -1006.43 1813.71 0c330.99,0 650.96,78.7 910.18,292.56 298.65,246.39 366.73,666.18 366.73,1031.69l0 5826.28c0,770.56 110.86,1717.61 636.79,2323.98 483.81,557.8 1194.13,725.39 1907.31,725.39 734.56,0 1407.77,-201.48 1919,-745.33 567.03,-603.22 704.09,-1508.34 704.09,-2304.04l0 -7150.53 1543.25 0 0 6961.04c0,514.33 -61.19,1026.74 -168.89,1529.34 -113.67,530.46 -326.05,1020.84 -638.19,1464.4 -335.45,476.69 -790.87,834.29 -1305.23,1101.55 -651.72,338.63 -1439.25,434.19 -2164.54,434.19 -758.18,0 -1592.94,-92.36 -2280.58,-432.96 -532.32,-263.67 -1009.36,-622.05 -1354.78,-1110.4 -315.45,-445.98 -527.09,-939.04 -631.05,-1475.27 -96.45,-497.49 -152.56,-1003.78 -152.56,-1510.84l0 -5954.61zm16385.21 205.24l0 10042.02 -1985.35 0 0 -10042.02 -2230.4 0 0 1831.58 -1543.25 0 0 -2192.69c0,-559.05 312.38,-850.56 866.37,-850.56l7799.91 0c553.99,0 866.37,291.51 866.37,850.56l0 2192.69 -1543.25 0 0 -1831.58 -2230.4 0zm-45615.31 4752.6l0 4093.54 2007.28 0c257.15,0 516.65,-36.78 767.51,-91.51 275.29,-60.06 530.83,-170.72 765.34,-327.06 251.24,-167.49 441.59,-398.79 586.62,-661.66 183.58,-332.75 235.21,-741.89 235.21,-1116.54 0,-332.02 -51.69,-689.44 -231.22,-975.56 -151.36,-241.23 -348.11,-436.46 -597.16,-575.92 -253.14,-141.75 -526.47,-232.11 -813.2,-275.84 -288.03,-43.93 -579.5,-69.45 -870.98,-69.45l-1849.4 0zm0 -1180.11l1723.09 0c232.01,0 465.13,-26.87 693.11,-68.74 239.85,-44.06 462.83,-132.37 667.98,-264.25 213.91,-137.52 375.68,-328.14 497.8,-549.78 153.26,-278.14 195.78,-622.06 195.78,-935.04 0,-302.03 -49.65,-621.07 -214.85,-879.88 -139.88,-219.14 -317.32,-403.95 -539.39,-540.2 -217.72,-133.59 -452.99,-224.88 -703.7,-274.03 -237.48,-46.57 -480.79,-76.34 -723.05,-76.34l-1596.77 0 0 3588.27z"/>
  <path fill="#00B0F0" d="M17489.18 3866.12c44.55,-1.01 89.11,-1.56 133.68,-1.56 2503.68,0 4773.09,1444.5 5839.27,3700.84 2.46,4.67 4.77,9.49 6.94,14.46l1.26 2.88c19.18,40.85 38.04,81.85 56.32,123.1 9.47,21.38 15.08,43.23 16.87,65.04 257.49,714.94 375.26,1544.75 352.61,2297.44 -25.85,859.66 -412.08,1777.11 -886.51,2482.58 -608.89,905.42 -1458.98,1633.35 -2471.25,2049.89 -63.58,29 -131.88,54.33 -197.45,77.83 -177.9,63.76 -360.82,116.79 -544.2,162.19 -655.51,162.28 -1343.91,231.89 -2018.26,231.89 -3941.33,0 -7882.79,-6.73 -11824.13,-10.9 -116.6,7.21 -233.42,10.9 -350.25,10.9 -119.18,0 -238.33,-4.15 -357.27,-11.65l-0.59 0c-9.67,0 -19.14,-0.63 -28.38,-1.88 -2935.23,-199.9 -5217.85,-2645.86 -5217.85,-5590.55 0,-3094.98 2509.1,-5604.06 5604.08,-5604.06 310.04,0 619.61,25.49 925.3,76.34 791.27,-2345.59 2999.31,-3940.91 5492.89,-3940.91 2463.91,0 4652.6,1557.95 5466.92,3866.12zm-1468.45 176.11c-691.92,-1578.62 -2260.36,-2610.98 -3998.47,-2610.98 -1919.3,0 -3618.39,1256.22 -4177.03,3092.85l-273.79 900.13c-29.45,96.8 -126.56,154.98 -225.8,135.26l-922.8 -183.33c-269.49,-53.54 -544.02,-80.35 -818.77,-80.35 -2304.96,0 -4172.82,1867.84 -4172.82,4172.81 0,2190.73 1698.31,4024.08 3889.28,4162.98l11.36 0.72c90.61,5.75 181.39,9.13 272.19,9.13 88.95,0 177.89,-2.89 266.66,-8.47l33.15 -2.08c4.39,-0.28 8.14,-0.39 12.54,-0.39l33.22 0.04c3942.94,4.66 7885.87,10.9 11828.82,10.9 366.25,0 745.49,-29.37 1108.11,-79.36 335.99,-46.32 748.58,-121.16 1057.57,-263.34l19.55 -9c2.6,-1.2 4.84,-2.17 7.49,-3.26l19.92 -8.18c751.24,-308.44 1379.49,-854.95 1830.85,-1526.1 319.37,-474.89 626.16,-1147.91 643.58,-1726.9 17.81,-591.95 -75.39,-1252.46 -282.79,-1808.17l-16.31 -43.71c-769.48,-1625.24 -2346.13,-2716.93 -4138.49,-2861.15 -682.67,-29.28 -1417.14,43.96 -2067.81,263.41 -683.27,255.71 -1336.92,591.18 -1886.65,1076.51 -411.13,362.97 -714.7,769.07 -1020.86,1219.49l-0.56 0.83c-132.65,195.82 -253.72,478.7 -325.1,701.19 -145.66,454.03 -183.8,950.69 -6.84,1401.8 107.58,184.59 264.17,331.7 469.22,400.05 284.85,94.95 574.4,88.63 852.98,-22.62 106.54,-42.54 245.92,-117.32 335.26,-196.09 303.2,-375.47 261.68,-811.44 71.13,-1229.34 -103.26,-226.47 -279.69,-498.95 -453.85,-680.9 -57.43,-60 -71.09,-144.91 -35.37,-219.9 35.71,-74.98 110.26,-117.89 193.04,-111.1 514.87,42.2 947.95,281.46 1262.82,688.28 130.33,168.39 267.46,408.52 327.24,616.08 1.45,5.04 2.52,9.38 3.59,14.51 131.46,634.8 75.58,1300.95 -329.93,1829.31 -507.31,661 -1373.88,863.68 -2168.85,832.76 -735.2,-28.6 -1399.7,-308.34 -1828.74,-923.45 -326.12,-467.56 -467.74,-1074.08 -410.41,-1639.17 65.27,-643.3 221.96,-1245.98 502.97,-1830.45 417.7,-868.78 1059.05,-1590.63 1809.16,-2188.44 786.89,-627.12 1722.02,-1049.19 2700.37,-1272.77z"/>
 </g>
</svg>
